<svg width="64" height="64" viewBox="0 0 64 64" fill="none" xmlns="http://www.w3.org/2000/svg">
<g clip-path="url(#clip0_0_1)">
<rect width="64" height="64" rx="2" fill="#FD6B00"/>
<path d="M21.8947 48.672C19.4307 48.672 17.1427 48.384 15.0307 47.808C12.9507 47.232 11.3507 46.48 10.2307 45.552C9.68669 42.992 9.41469 40.336 9.41469 37.584C9.41469 32.88 10.2307 28.464 11.8627 24.336C13.4947 20.176 16.0067 16.864 19.3987 14.4L28.6627 20.256C24.2467 23.072 20.7427 26.656 18.1507 31.008C15.5587 35.36 14.2627 39.744 14.2627 44.16C16.0227 44.512 17.7507 44.688 19.4467 44.688C21.1747 44.688 22.7267 44.528 24.1027 44.208L23.1427 33.696L32.2627 33.12L29.3827 50.016L24.6787 50.4L24.4867 48.528C23.6227 48.624 22.7587 48.672 21.8947 48.672ZM58.2389 48L40.4309 48.432L38.1749 16.8L49.5989 16.08L46.1429 44.544L58.4309 43.056L58.2389 48Z" fill="#0E0A0C"/>
<circle cx="18" cy="30" r="1" fill="#FD6B00"/>
<circle cx="57" cy="44" r="1" fill="#FD6B00"/>
<circle cx="56" cy="45" r="1" fill="#FD6B00"/>
<circle cx="39" cy="47" r="4" fill="#FD6B00"/>
<circle cx="48" cy="16" r="5" fill="#FD6B00"/>
<circle cx="12" cy="21" r="5" fill="#FD6B00"/>
</g>
<defs>
<clipPath id="clip0_0_1">
<rect width="64" height="64" fill="white"/>
</clipPath>
</defs>
</svg>
